# Blender v2.73 (sub 0) OBJ File: ''
# www.blender.org
mtllib ground.mtl
o Ground
v -0.750000 0.000000 -3.459065
v -0.750000 0.000000 -5.459065
v 1.250000 0.000000 -5.459065
v 1.250000 0.000000 -3.459065
v -0.750000 2.000000 -3.459065
v -0.750000 2.000000 -5.459065
v 1.250000 2.000000 -5.459065
v 1.250000 2.000000 -3.459065
v -10.000000 0.000000 10.000000
v 10.000000 0.000000 10.000000
v -10.000000 0.000000 -10.000000
v 10.000000 0.000000 -10.000000
vn -1.000000 0.000000 0.000000
vn 0.000000 0.000000 -1.000000
vn 1.000000 0.000000 0.000000
vn 0.000000 0.000000 1.000000
vn 0.000000 -1.000000 0.000000
vn 0.000000 1.000000 0.000000
usemtl None
s off
f 6//1 2//1 1//1
f 7//2 3//2 2//2
f 8//3 4//3 3//3
f 5//4 1//4 4//4
f 2//5 3//5 4//5
f 7//6 6//6 5//6
f 10//6 12//6 11//6
f 5//1 6//1 1//1
f 6//2 7//2 2//2
f 7//3 8//3 3//3
f 8//4 5//4 4//4
f 1//5 2//5 4//5
f 8//6 7//6 5//6
f 9//6 10//6 11//6
